<svg width="210" height="50" xmlns="http://www.w3.org/2000/svg" stroke="null">
 <g stroke="null">
  <title stroke="null">Layer 1</title>
  <g stroke="null" id="svg_2">
   <text stroke="#666666" stroke-width="0.1" font-style="normal" font-weight="bold" transform="matrix(0.871608 0 0 0.896589 -369.331 -74.5486)" xml:space="preserve" text-anchor="start" font-family="'Roboto Slab'" font-size="24" id="svg_32" y="108.4776" x="477.36988" fill="#333333">Py BTLS</text>
   <g stroke="null" stroke-width="2" id="svg_37">
    <path stroke="#666666" id="svg_12" d="m96.86881,37.62785c0.51794,-0.62145 1.48913,0.05201 1.60625,-1.08235c0.22543,-1.00802 -0.46324,-1.79555 -0.9215,-2.40592c-0.80172,-0.56914 -1.72615,-0.63796 -2.59317,-0.89876c-1.03896,-0.21485 -2.1207,-0.39848 -3.01634,-1.2513c-1.02011,-0.90937 -2.15626,-1.66617 -3.38522,-1.65276c-1.69329,-0.08362 -3.44524,-0.00261 -5.01079,1.02759c-0.98409,0.63282 -2.04139,0.95445 -3.09164,1.26401c-0.8936,0.16735 -0.68579,1.5406 -0.98301,2.38721c-0.22689,0.97217 0.26358,1.93984 0.9815,1.97075c0.75907,0.24585 1.64745,0.27004 2.17735,1.21411c0.54281,0.85623 1.51751,0.82667 2.07028,0.00871c0.22853,-0.20219 0.38111,-0.69172 0.68544,-0.60722c2.83771,0.02191 5.67688,-0.05773 8.51335,0.07199c0.74119,-0.08408 1.04905,1.22654 1.83745,1.13544c0.40368,0.01784 0.78595,-0.91102 1.13005,-1.18152l0,0l0,0l0,0z" fill="#333333"/>
    <g stroke="null" id="svg_34">
     <rect stroke="#666666" id="svg_31" height="2.08664" width="3.2118" y="33.69952" x="186.86945" fill="#333333"/>
     <path stroke="#666666" id="svg_17" d="m199.63107,28.39654l-1.46506,-0.27822l-0.36627,-1.1129l1.83132,1.39112l0,6.95544l-10.98772,0l0,-8.34656l9.1564,0" fill="#333333"/>
     <rect stroke="#666666" id="svg_30" height="2.08664" width="3.2118" y="33.69952" x="156.10196" fill="#333333"/>
     <rect stroke="#666666" id="svg_15" height="10.78098" width="29.58233" y="25.00518" x="158.55352" fill="#333333"/>
     <ellipse stroke="#666666" ry="2.34747" rx="2.28207" id="svg_16" cy="36.39476" cx="188.7609" fill="#333333"/>
     <ellipse stroke="#666666" ry="2.34747" rx="2.28207" id="svg_18" cy="36.39476" cx="196.42228" fill="#333333"/>
     <ellipse stroke="#666666" ry="2.34747" rx="2.28207" id="svg_20" cy="36.39476" cx="184.00808" fill="#333333"/>
     <g stroke="null" id="svg_24">
      <ellipse stroke="#666666" ry="2.34747" rx="2.28207" id="svg_21" cy="36.39476" cx="166.1575" fill="#333333"/>
      <ellipse stroke="#666666" ry="2.34747" rx="2.28207" id="svg_22" cy="36.39476" cx="170.89358" fill="#333333"/>
      <ellipse stroke="#666666" ry="2.34747" rx="2.28207" id="svg_23" cy="36.39476" cx="161.42279" fill="#333333"/>
     </g>
     <g stroke="null" id="svg_29">
      <rect stroke="#666666" id="svg_19" height="10.78098" width="25.69437" y="25.00518" x="131.83136" fill="#333333"/>
      <g stroke="null" id="svg_28">
       <ellipse stroke="#666666" ry="2.34747" rx="2.28207" id="svg_25" cy="36.39476" cx="139.82748" fill="#333333"/>
       <ellipse stroke="#666666" ry="2.34747" rx="2.28207" id="svg_26" cy="36.39476" cx="144.56357" fill="#333333"/>
       <ellipse stroke="#666666" ry="2.34747" rx="2.28207" id="svg_27" cy="36.39476" cx="135.09277" fill="#333333"/>
      </g>
     </g>
    </g>
    <g stroke="null" id="svg_35">
     <rect stroke="#666666" id="svg_8" height="10.78098" width="20.45407" y="25.00518" x="15.97137" fill="#333333"/>
     <ellipse stroke="#666666" ry="2.34747" rx="2.28207" id="svg_9" cy="36.39476" cx="23.16128" fill="#333333"/>
     <path stroke="#666666" id="svg_13" d="m43.18716,28.39614l-0.90157,-0.27822l-0.22539,-1.1129l1.12697,1.39112l0,6.95544l-6.76167,0l0,-8.34656l5.63471,0" fill="#333333"/>
     <ellipse stroke="#666666" ry="2.34747" rx="2.28207" id="svg_14" cy="36.39476" cx="39.46819" fill="#333333"/>
    </g>
    <g stroke="null" id="svg_36">
     <rect stroke="#666666" id="svg_1" height="3.91245" width="202.85027" y="38.82917" x="3.54166" fill="#333333"/>
     <path stroke="#666666" id="svg_5" d="m-0.26178,50.21876l4.1536,-7.47713l4.1536,7.47713l-8.3072,0l0,0l0,0z" fill="#333333"/>
     <path stroke="#666666" id="svg_6" d="m201.95458,50.21876l4.1536,-7.47713l4.1536,7.47713l-8.3072,0l0,0z" fill="#333333"/>
     <path stroke="#666666" id="svg_7" d="m100.8132,50.21876l4.1536,-7.47713l4.1536,7.47713l-8.3072,0l0,0z" fill="#333333"/>
    </g>
   </g>
   <g stroke="null" id="svg_45">
    <path stroke="#ff0000" id="svg_42" d="m31.85173,44.01496c-0.6567,0.67552 -1.53123,1.0462 -2.46145,1.04357c-0.9315,-0.00176 -1.8088,-0.37836 -2.47041,-1.05893l-1.01236,1.04137c1.92188,1.97696 5.04237,1.98311 6.95614,0.01449l-1.01172,-1.04071l-0.00021,0.00022l0,0l0,0zm1.79259,1.8466c-2.34112,2.40821 -6.16013,2.39724 -8.51362,-0.0237l-1.01193,1.04093c2.91141,2.99485 7.63866,3.00561 10.53769,0.02348l-1.01193,-1.04093l-0.00021,0.00022l0,0zm-4.96066,-2.22342c-0.38723,-0.39833 -0.38745,-1.04423 -0.00043,-1.44234s1.01492,-0.39789 1.40215,0.00044c0.38681,0.39789 0.38702,1.04379 0,1.4419s-1.0147,0.39811 -1.40173,0l0,0z" fill="#ff0000"/>
    <path stroke="#ff0000" id="svg_43" d="m91.38334,44.01478c-0.6567,0.67552 -1.53123,1.0462 -2.46145,1.04357c-0.9315,-0.00176 -1.8088,-0.37836 -2.47041,-1.05893l-1.01236,1.04137c1.92188,1.97696 5.04237,1.98311 6.95614,0.01449l-1.01172,-1.04071l-0.00021,0.00022l0,0zm1.79259,1.8466c-2.34112,2.40821 -6.16013,2.39724 -8.51362,-0.0237l-1.01193,1.04093c2.91141,2.99485 7.63866,3.00561 10.53769,0.02348l-1.01193,-1.04093l-0.00021,0.00022l0,0zm-4.96066,-2.22342c-0.38724,-0.39833 -0.38745,-1.04423 -0.00043,-1.44234s1.01492,-0.39789 1.40215,0.00044c0.38681,0.39789 0.38702,1.04379 0,1.4419s-1.0147,0.39811 -1.40173,0z" fill="#ff0000"/>
    <path stroke="#ff0000" id="svg_44" d="m169.96813,44.0152c-0.6567,0.67552 -1.53123,1.0462 -2.46145,1.04357c-0.9315,-0.00176 -1.8088,-0.37836 -2.47041,-1.05893l-1.01236,1.04137c1.92188,1.97696 5.04237,1.98311 6.95614,0.01449l-1.01172,-1.04071l-0.00021,0.00022l0,0zm1.79259,1.8466c-2.34112,2.40821 -6.16013,2.39724 -8.51362,-0.0237l-1.01193,1.04093c2.91141,2.99485 7.63866,3.00561 10.53769,0.02348l-1.01193,-1.04093l-0.00021,0.00022l0,0zm-4.96066,-2.22342c-0.38724,-0.39833 -0.38745,-1.04423 -0.00043,-1.44234s1.01492,-0.39789 1.40215,0.00044c0.38681,0.39789 0.38702,1.04379 0,1.4419s-1.0147,0.39811 -1.40173,0z" fill="#ff0000"/>
   </g>
  </g>
 </g>

</svg>