<svg width="2100" height="500" xmlns="http://www.w3.org/2000/svg" stroke="null">
 <g stroke="null">
  <title stroke="null">Layer 1</title>
  <g stroke="null" id="svg_2">
   <text stroke="#666666" stroke-width="0.1" font-style="normal" font-weight="bold" transform="matrix(8.68829 0 0 8.93731 -3678.93 -744.678)" xml:space="preserve" text-anchor="start" font-family="'Roboto Slab'" font-size="24" id="svg_32" y="108.4776" x="477.36988" fill="#333333">Py BTLS</text>
   <g stroke="null" stroke-width="2" id="svg_37">
    <path stroke="#666666" id="svg_12" d="m968.20908,373.51056c5.16286,-6.19464 14.84386,0.51846 16.01127,-10.78899c2.2471,-10.04806 -4.61762,-17.89821 -9.18562,-23.98247c-7.99162,-5.67322 -17.20647,-6.35924 -25.84898,-8.95892c-10.35651,-2.14165 -21.13939,-3.97212 -30.0672,-12.47308c-10.16858,-9.06468 -21.49389,-16.60856 -33.74424,-16.47492c-16.87895,-0.83355 -34.34251,-0.02598 -49.94813,10.24309c-9.8095,6.30805 -20.34884,9.51403 -30.81785,12.59984c-8.90754,1.66815 -6.83606,15.35692 -9.79877,23.796c-2.26163,9.69068 2.62742,19.33656 9.78375,19.64468c7.56652,2.45062 16.42197,2.69182 21.70407,12.10236c5.41083,8.53496 15.12672,8.24035 20.63675,0.08684c2.27806,-2.01548 3.79896,-6.89516 6.83252,-6.05286c28.28661,0.21839 56.5878,-0.57549 84.86204,0.71765c7.38827,-0.83813 10.45705,12.22629 18.31595,11.31822c4.02388,0.17787 7.83442,-9.08112 11.26445,-11.77749l0,0.00001l0,0.00001l-0.00001,0.00001z" fill="#333333"/>
    <g stroke="null" id="svg_34">
     <rect stroke="#666666" id="svg_31" height="20.79989" width="32.01556" y="334.35245" x="1865.34604" fill="#333333"/>
     <path stroke="#666666" id="svg_17" d="m1992.55543,281.49175l-14.60387,-2.77335l-3.65099,-11.0935l18.25486,13.86686l0,69.33268l-109.5269,0l0,-83.19953l91.27205,0" fill="#333333"/>
     <rect stroke="#666666" id="svg_30" height="20.79989" width="32.01556" y="334.35245" x="1558.65218" fill="#333333"/>
     <rect stroke="#666666" id="svg_15" height="107.46607" width="294.88015" y="247.68626" x="1583.08958" fill="#333333"/>
     <ellipse stroke="#666666" ry="23.39987" rx="22.7479" id="svg_16" cy="361.21895" cx="1884.20026" fill="#333333"/>
     <ellipse stroke="#666666" ry="23.39987" rx="22.7479" id="svg_18" cy="361.21895" cx="1960.56984" fill="#333333"/>
     <ellipse stroke="#666666" ry="23.39987" rx="22.7479" id="svg_20" cy="361.21895" cx="1836.82362" fill="#333333"/>
     <g stroke="null" id="svg_24">
      <ellipse stroke="#666666" ry="23.39987" rx="22.7479" id="svg_21" cy="361.21895" cx="1658.88691" fill="#333333"/>
      <ellipse stroke="#666666" ry="23.39987" rx="22.7479" id="svg_22" cy="361.21895" cx="1706.09678" fill="#333333"/>
      <ellipse stroke="#666666" ry="23.39987" rx="22.7479" id="svg_23" cy="361.21895" cx="1611.69082" fill="#333333"/>
     </g>
     <g stroke="null" id="svg_29">
      <rect stroke="#666666" id="svg_19" height="107.46607" width="256.12448" y="247.68626" x="1316.71992" fill="#333333"/>
      <g stroke="null" id="svg_28">
       <ellipse stroke="#666666" ry="23.39987" rx="22.7479" id="svg_25" cy="361.21895" cx="1396.42618" fill="#333333"/>
       <ellipse stroke="#666666" ry="23.39987" rx="22.7479" id="svg_26" cy="361.21895" cx="1443.63605" fill="#333333"/>
       <ellipse stroke="#666666" ry="23.39987" rx="22.7479" id="svg_27" cy="361.21895" cx="1349.23009" fill="#333333"/>
      </g>
     </g>
    </g>
    <g stroke="null" id="svg_35">
     <rect stroke="#666666" id="svg_8" height="107.46607" width="203.88855" y="247.68626" x="161.81397" fill="#333333"/>
     <ellipse stroke="#666666" ry="23.39987" rx="22.7479" id="svg_9" cy="361.21895" cx="233.48382" fill="#333333"/>
     <path stroke="#666666" id="svg_13" d="m433.10415,281.48777l-8.987,-2.77337l-2.24676,-11.09349l11.23375,13.86686l0,69.33267l-67.40116,0l0,-83.19953l56.1674,0" fill="#333333"/>
     <ellipse stroke="#666666" ry="23.39987" rx="22.7479" id="svg_14" cy="361.21895" cx="396.03305" fill="#333333"/>
    </g>
    <g stroke="null" id="svg_36">
     <rect stroke="#666666" id="svg_1" height="38.99978" width="2022.03528" y="385.48549" x="37.91316" fill="#333333"/>
     <path stroke="#666666" id="svg_5" d="m0,499.01818l41.40358,-74.53289l41.40358,74.53289l-82.80713,0l-0.00001,0l-0.00001,0z" fill="#333333"/>
     <path stroke="#666666" id="svg_6" d="m2015.71642,499.01818l41.40358,-74.5329l41.40357,74.5329l-82.80713,0l-0.00001,0z" fill="#333333"/>
     <path stroke="#666666" id="svg_7" d="m1007.52723,499.01818l41.40358,-74.5329l41.40357,74.5329l-82.80713,0l-0.00001,0z" fill="#333333"/>
    </g>
   </g>
   <g stroke="null" id="svg_45">
    <path stroke="#ff0000" id="svg_42" d="m320.11122,437.17805c-6.54605,6.73366 -15.26349,10.42865 -24.53599,10.4024c-9.28526,-0.0175 -18.03036,-3.77156 -24.62532,-10.55554l-10.0913,10.38052c19.15753,19.70659 50.26297,19.76785 69.33967,0.14439l-10.08493,-10.37397l-0.00213,0.00218l-0.00001,0.00001l0.00001,0zm17.86873,18.40711c-23.33652,24.00536 -61.40487,23.89598 -84.86475,-0.23628l-10.08705,10.37614c29.02126,29.85303 76.14306,29.96025 105.04096,0.2341l-10.08705,-10.37615l-0.00213,0.00218l0.00001,0.00001zm-49.44843,-22.16336c-3.86,-3.97063 -3.86213,-10.40896 -0.00425,-14.3774s10.11682,-3.96626 13.97682,0.00438c3.85575,3.96626 3.85787,10.40458 0,14.37302s-10.11469,3.96844 -13.97256,0l-0.00001,0z" fill="#ff0000"/>
    <path stroke="#ff0000" id="svg_43" d="m913.52929,437.17621c-6.54605,6.73366 -15.26348,10.42864 -24.53599,10.4024c-9.28526,-0.0175 -18.03036,-3.77156 -24.62532,-10.55554l-10.0913,10.38052c19.15752,19.70658 50.26297,19.76785 69.33966,0.1444l-10.08493,-10.37397l-0.00213,0.00218l0.00001,0zm17.86873,18.40711c-23.33652,24.00536 -61.40487,23.89598 -84.86474,-0.23628l-10.08705,10.37614c29.02126,29.85303 76.14307,29.96024 105.04096,0.2341l-10.08705,-10.37615l-0.00213,0.00218l0,0.00001zm-49.44843,-22.16336c-3.86001,-3.97063 -3.86213,-10.40897 -0.00426,-14.37741s10.11682,-3.96626 13.97682,0.00439c3.85575,3.96626 3.85787,10.40458 0,14.37302s-10.11469,3.96844 -13.97256,0z" fill="#ff0000"/>
    <path stroke="#ff0000" id="svg_44" d="m1696.87178,437.18037c-6.54605,6.73366 -15.26348,10.42864 -24.53599,10.4024c-9.28526,-0.0175 -18.03036,-3.77156 -24.62532,-10.55554l-10.0913,10.38052c19.15752,19.70658 50.26297,19.76785 69.33966,0.1444l-10.08493,-10.37397l-0.00213,0.00218l0.00001,0zm17.86873,18.40711c-23.33652,24.00536 -61.40487,23.89598 -84.86474,-0.23628l-10.08705,10.37614c29.02126,29.85303 76.14307,29.96024 105.04096,0.2341l-10.08705,-10.37615l-0.00213,0.00218l0,0.00001zm-49.44843,-22.16336c-3.86001,-3.97063 -3.86213,-10.40897 -0.00426,-14.37741s10.11682,-3.96626 13.97682,0.00439c3.85575,3.96626 3.85787,10.40458 0,14.37302s-10.11469,3.96844 -13.97256,0z" fill="#ff0000"/>
   </g>
  </g>
 </g>

</svg>